<svg width="84" height="84" viewBox="0 0 84 84" fill="none" xmlns="http://www.w3.org/2000/svg">
<rect width="84" height="84" rx="10" fill="#31ABDB"/>
<path d="M28 55C28 56.6562 29.3438 58 31 58H53C54.6562 58 56 56.6562 56 55V38H28V55ZM48 42.75C48 42.3375 48.3375 42 48.75 42H51.25C51.6625 42 52 42.3375 52 42.75V45.25C52 45.6625 51.6625 46 51.25 46H48.75C48.3375 46 48 45.6625 48 45.25V42.75ZM48 50.75C48 50.3375 48.3375 50 48.75 50H51.25C51.6625 50 52 50.3375 52 50.75V53.25C52 53.6625 51.6625 54 51.25 54H48.75C48.3375 54 48 53.6625 48 53.25V50.75ZM40 42.75C40 42.3375 40.3375 42 40.75 42H43.25C43.6625 42 44 42.3375 44 42.75V45.25C44 45.6625 43.6625 46 43.25 46H40.75C40.3375 46 40 45.6625 40 45.25V42.75ZM40 50.75C40 50.3375 40.3375 50 40.75 50H43.25C43.6625 50 44 50.3375 44 50.75V53.25C44 53.6625 43.6625 54 43.25 54H40.75C40.3375 54 40 53.6625 40 53.25V50.75ZM32 42.75C32 42.3375 32.3375 42 32.75 42H35.25C35.6625 42 36 42.3375 36 42.75V45.25C36 45.6625 35.6625 46 35.25 46H32.75C32.3375 46 32 45.6625 32 45.25V42.75ZM32 50.75C32 50.3375 32.3375 50 32.75 50H35.25C35.6625 50 36 50.3375 36 50.75V53.25C36 53.6625 35.6625 54 35.25 54H32.75C32.3375 54 32 53.6625 32 53.25V50.75ZM53 30H50V27C50 26.45 49.55 26 49 26H47C46.45 26 46 26.45 46 27V30H38V27C38 26.45 37.55 26 37 26H35C34.45 26 34 26.45 34 27V30H31C29.3438 30 28 31.3438 28 33V36H56V33C56 31.3438 54.6562 30 53 30Z" fill="#F7F8FA"/>
</svg>
