<svg width="69" height="69" viewBox="0 0 69 69" fill="none" xmlns="http://www.w3.org/2000/svg">
<rect width="69" height="69" rx="10" transform="matrix(-1 0 0 1 69 0)" fill="#F27433"/>
<path d="M53.1603 39.639C53.3228 38.789 53.3228 37.921 53.1603 37.071L54.7729 36.1728C54.9605 36.0703 55.0417 35.8593 54.9792 35.6604C54.5604 34.3583 53.8416 33.1768 52.904 32.2003C52.7602 32.0496 52.529 32.0134 52.3414 32.1159L50.7288 33.0141C50.0474 32.4534 49.2661 32.0194 48.4223 31.7301V29.9337C48.4223 29.7287 48.2723 29.5479 48.066 29.5057C46.6721 29.2043 45.2532 29.2163 43.9281 29.5057C43.7218 29.5479 43.5718 29.7287 43.5718 29.9337V31.7301C42.7279 32.0194 41.9466 32.4534 41.2653 33.0141L39.6526 32.1159C39.4713 32.0134 39.2338 32.0496 39.09 32.2003C38.1524 33.1768 37.4336 34.3583 37.0148 35.6604C36.9523 35.8593 37.0398 36.0703 37.2211 36.1728L38.8338 37.071C38.6712 37.921 38.6712 38.789 38.8338 39.639L37.2211 40.5372C37.0336 40.6397 36.9523 40.8506 37.0148 41.0496C37.4336 42.3516 38.1524 43.5271 39.09 44.5097C39.2338 44.6604 39.4651 44.6966 39.6526 44.5941L41.2653 43.6959C41.9466 44.2565 42.7279 44.6906 43.5718 44.9799V46.7763C43.5718 46.9812 43.7218 47.1621 43.9281 47.2043C45.3219 47.5057 46.7408 47.4936 48.066 47.2043C48.2723 47.1621 48.4223 46.9812 48.4223 46.7763V44.9799C49.2661 44.6906 50.0474 44.2565 50.7288 43.6959L52.3414 44.5941C52.5227 44.6966 52.7602 44.6604 52.904 44.5097C53.8416 43.5332 54.5604 42.3516 54.9792 41.0496C55.0417 40.8506 54.9542 40.6397 54.7729 40.5372L53.1603 39.639ZM46.0033 41.2786C44.3281 41.2786 42.9717 39.9645 42.9717 38.355C42.9717 36.7455 44.3343 35.4313 46.0033 35.4313C47.6722 35.4313 49.0348 36.7455 49.0348 38.355C49.0348 39.9645 47.6784 41.2786 46.0033 41.2786ZM21.0006 32.568C23.2071 32.568 25.0011 30.8379 25.0011 28.71C25.0011 26.582 23.2071 24.852 21.0006 24.852C18.7942 24.852 17.0002 26.582 17.0002 28.71C17.0002 30.8379 18.7942 32.568 21.0006 32.568ZM35.0021 34.497C35.1209 34.497 35.2334 34.4668 35.3521 34.4608C35.871 33.1527 36.6335 31.923 37.6211 30.8922C38.0837 30.4099 38.74 30.1326 39.4276 30.1326C39.8589 30.1326 40.2839 30.2411 40.6527 30.4521L41.1465 30.7294C41.1965 30.6993 41.2465 30.6752 41.2965 30.645C41.7341 29.7649 41.9966 28.7883 41.9966 27.7515C41.9966 24.0201 38.865 21 34.9959 21C31.1267 21 28.0014 24.0141 28.0014 27.7455C28.0014 31.4769 31.133 34.497 35.0021 34.497ZM41.5778 46.2217C41.434 46.1494 41.2903 46.065 41.1528 45.9866C40.6402 46.276 40.1964 46.5774 39.4338 46.5774C38.7525 46.5774 38.0962 46.3001 37.6274 45.8178C36.4835 44.6242 35.6084 43.1715 35.1146 41.6222C34.4458 39.5425 36.671 38.6263 36.7273 38.5901C36.721 38.4334 36.721 38.2766 36.7273 38.1199L36.2335 37.8426C35.996 37.71 35.7959 37.5412 35.6209 37.3543C35.4147 37.3664 35.2146 37.3905 35.0084 37.3905C33.4707 37.3905 32.033 37.0288 30.7267 36.426H30.2079C26.2262 36.426 23.0008 39.5365 23.0008 43.3704V45.1065C23.0008 46.704 24.3447 48 26.0012 48H41.9653C41.7341 47.6383 41.5778 47.2284 41.5778 46.7763V46.2217ZM25.8199 35.6182C25.0948 34.925 24.101 34.497 23.0008 34.497H19.0004C16.7939 34.497 15 36.2271 15 38.355V40.284C15 41.351 15.8938 42.213 17.0002 42.213H21.1194C21.5132 39.3557 23.3009 36.9504 25.8199 35.6182Z" fill="white"/>
</svg>
