<svg width="69" height="69" viewBox="0 0 69 69" fill="none" xmlns="http://www.w3.org/2000/svg">
<rect width="69" height="69" rx="10" fill="#35A1B9"/>
<path d="M34.5 34.9904C37.632 34.9904 40.1703 32.4917 40.1703 29.4087C40.1703 26.3257 37.632 23.827 34.5 23.827C31.368 23.827 28.8297 26.3257 28.8297 29.4087C28.8297 32.4917 31.368 34.9904 34.5 34.9904ZM38.7439 36.412L36.6264 44.7585L35.2088 38.8279L36.6264 36.3859H32.3736L33.7912 38.8279L32.3736 44.7585L30.2561 36.412C27.0976 36.5603 24.5769 39.1026 24.5769 42.2467V44.0607C24.5769 45.2163 25.5294 46.1539 26.7033 46.1539H42.2967C43.4706 46.1539 44.4231 45.2163 44.4231 44.0607V42.2467C44.4231 39.1026 41.9024 36.5603 38.7439 36.412Z" fill="white"/>
<mask id="mask0" style="mask-type:alpha" maskUnits="userSpaceOnUse" x="39" y="23" width="17" height="20">
<path d="M47.7308 32.5096C50.3408 32.5096 52.4561 30.3811 52.4561 27.7548C52.4561 25.1285 50.3408 23 47.7308 23C45.1208 23 43.0055 25.1285 43.0055 27.7548C43.0055 30.3811 45.1208 32.5096 47.7308 32.5096ZM51.0385 33.6983H50.422C49.6024 34.0772 48.6906 34.2927 47.7308 34.2927C46.771 34.2927 45.8628 34.0772 45.0396 33.6983H44.4231C41.6839 33.6983 39.4615 35.9346 39.4615 38.6909V40.2362C39.4615 41.2206 40.2552 42.0192 41.2335 42.0192H54.228C55.2063 42.0192 56 41.2206 56 40.2362V38.6909C56 35.9346 53.7777 33.6983 51.0385 33.6983Z" fill="white"/>
</mask>
<g mask="url(#mask0)">
<path d="M46.9038 42.0193C46.9038 38.0501 43.0449 34.8526 41.1154 33.75V22.1732H56.8269V42.8462H46.9038V42.0193Z" fill="white"/>
</g>
<mask id="mask1" style="mask-type:alpha" maskUnits="userSpaceOnUse" x="13" y="23" width="17" height="20">
<path d="M21.2692 32.5096C18.6592 32.5096 16.5439 30.3811 16.5439 27.7548C16.5439 25.1285 18.6592 23 21.2692 23C23.8792 23 25.9945 25.1285 25.9945 27.7548C25.9945 30.3811 23.8792 32.5096 21.2692 32.5096ZM17.9615 33.6983H18.578C19.3976 34.0772 20.3094 34.2927 21.2692 34.2927C22.229 34.2927 23.1372 34.0772 23.9604 33.6983H24.5769C27.3161 33.6983 29.5385 35.9346 29.5385 38.6909V40.2362C29.5385 41.2206 28.7448 42.0192 27.7665 42.0192H14.772C13.7937 42.0192 13 41.2206 13 40.2362V38.6909C13 35.9346 15.2223 33.6983 17.9615 33.6983Z" fill="white"/>
</mask>
<g mask="url(#mask1)">
<path d="M22.0962 42.0193C22.0962 38.0501 25.9551 34.8526 27.8846 33.75V22.1732H12.1731V42.8462H22.0962V42.0193Z" fill="white"/>
</g>
</svg>
