<svg width="69" height="69" viewBox="0 0 69 69" fill="none" xmlns="http://www.w3.org/2000/svg">
<rect width="69" height="69" rx="10" fill="#FFC144"/>
<path d="M28.7001 39.9375C28.5656 39.9375 28.4312 39.9573 28.3029 39.9992C27.5739 40.2377 26.8073 40.3906 26.0001 40.3906C25.1929 40.3906 24.4262 40.2377 23.6966 39.9992C23.5684 39.9573 23.4345 39.9375 23.3001 39.9375C19.8092 39.9375 16.9815 42.7967 17.0001 46.3164C17.008 47.8037 18.2224 49 19.7001 49H32.3001C33.7777 49 34.9922 47.8037 35 46.3164C35.0186 42.7967 32.1909 39.9375 28.7001 39.9375ZM26.0001 38.125C28.9824 38.125 31.4001 35.6906 31.4001 32.6875C31.4001 29.6844 28.9824 27.25 26.0001 27.25C23.0177 27.25 20.6001 29.6844 20.6001 32.6875C20.6001 35.6906 23.0177 38.125 26.0001 38.125ZM50.3 20H28.7001C27.2111 20 26.0001 21.2603 26.0001 22.8088V25.4375C27.3174 25.4375 28.5369 25.8215 29.6001 26.4457V23.625H49.4V39.9375H45.8H44H42.5H38.6H34.3115C35.3859 40.8828 36.1745 42.1312 36.5441 43.5625H50.3C51.7889 43.5625 53 42.3022 53 40.7537V22.8088C53 21.2603 51.7889 20 50.3 20Z" fill="white"/>
</svg>
