<svg width="69" height="69" viewBox="0 0 69 69" fill="none" xmlns="http://www.w3.org/2000/svg">
<rect width="69" height="69" rx="10" fill="#31ABDB"/>
<path d="M29.0701 41.3727C28.5269 40.8126 28.8101 40.9705 27.5001 40.6089C26.9057 40.4446 26.3832 40.1288 25.9107 39.7504L23.0751 46.9201C22.8008 47.6142 23.3132 48.3683 24.0395 48.3399L27.3326 48.2104L29.5976 50.6776C30.0976 51.2216 30.975 51.0521 31.2494 50.3579L34.5025 42.1326C33.825 42.5219 33.0731 42.75 32.2957 42.75C31.0769 42.75 29.9319 42.2608 29.0701 41.3727ZM46.9249 46.9201L44.0893 39.7504C43.6168 40.1294 43.0943 40.4446 42.4999 40.6089C41.1831 40.9724 41.4718 40.8139 40.9299 41.3727C40.0681 42.2608 38.9225 42.75 37.7037 42.75C36.9262 42.75 36.1744 42.5212 35.4969 42.1326L38.75 50.3579C39.0243 51.0521 39.9025 51.2216 40.4018 50.6776L42.6674 48.2104L45.9605 48.3399C46.6868 48.3683 47.1992 47.6136 46.9249 46.9201ZM39.4375 39.9141C40.3924 38.9119 40.5018 38.9983 41.8618 38.6161C42.7299 38.3718 43.4087 37.6596 43.6412 36.7483C44.1087 34.9178 43.9874 35.1389 45.263 33.7996C45.8986 33.1325 46.1468 32.1599 45.9143 31.2486C45.4474 29.4195 45.4468 29.6747 45.9143 27.8436C46.1468 26.9323 45.8986 25.9597 45.263 25.2926C43.9874 23.9533 44.1087 24.1737 43.6412 22.3439C43.4087 21.4326 42.7299 20.7204 41.8618 20.4761C40.1193 19.9856 40.3293 20.1139 39.0525 18.7739C38.4168 18.1069 37.49 17.8458 36.6219 18.0901C34.88 18.5799 35.1231 18.5806 33.3781 18.0901C32.51 17.8458 31.5832 18.1062 30.9475 18.7739C29.6719 20.1133 29.8819 19.9856 28.1388 20.4761C27.2707 20.7204 26.592 21.4326 26.3595 22.3439C25.8926 24.1737 26.0132 23.9533 24.7376 25.2926C24.102 25.9597 23.8532 26.9323 24.0864 27.8436C24.5532 29.6715 24.5539 29.4162 24.0864 31.248C23.8539 32.1593 24.102 33.1319 24.7376 33.7996C26.0132 35.1389 25.892 34.9178 26.3595 36.7483C26.592 37.6596 27.2707 38.3718 28.1388 38.6161C29.5376 39.0092 29.6419 38.9474 30.5625 39.9141C31.3894 40.7823 32.6775 40.9376 33.6713 40.2893C34.0686 40.0291 34.5296 39.8909 35.0003 39.8909C35.471 39.8909 35.932 40.0291 36.3294 40.2893C37.3225 40.9376 38.6106 40.7823 39.4375 39.9141ZM29.1038 29.3415C29.1038 25.9236 31.7438 23.1528 35 23.1528C38.2562 23.1528 40.8962 25.9236 40.8962 29.3415C40.8962 32.7593 38.2562 35.5301 35 35.5301C31.7438 35.5301 29.1038 32.7593 29.1038 29.3415Z" fill="white"/>
</svg>
