<svg width="111" height="88" viewBox="0 0 111 88" fill="none" xmlns="http://www.w3.org/2000/svg">
<path d="M36.2238 41.153C40.5361 43.051 43.8998 45.898 46.3147 49.6941C48.7296 53.4902 49.9371 57.9765 49.9371 63.1529C49.9371 70.5725 47.6084 76.6118 42.951 81.2706C38.2937 85.7569 32.3427 88 25.0979 88C17.8531 88 11.8159 85.6706 6.98601 81.0118C2.32867 76.3529 0 70.4 0 63.1529C0 59.702 0.431236 56.251 1.29371 52.8C2.15618 49.349 4.05361 44.1726 6.98601 37.2706L21.993 0H47.6084L36.2238 41.153ZM97.2867 41.153C101.599 43.051 104.963 45.898 107.378 49.6941C109.793 53.4902 111 57.9765 111 63.1529C111 70.5725 108.671 76.6118 104.014 81.2706C99.3566 85.7569 93.4056 88 86.1608 88C78.9161 88 72.8788 85.6706 68.049 81.0118C63.3916 76.3529 61.0629 70.4 61.0629 63.1529C61.0629 59.702 61.4942 56.251 62.3566 52.8C63.2191 49.349 65.1166 44.1726 68.049 37.2706L83.0559 0H108.671L97.2867 41.153Z" fill="#2780BE" fill-opacity="0.2"/>
</svg>
