<svg width="111" height="88" viewBox="0 0 111 88" fill="none" xmlns="http://www.w3.org/2000/svg">
<path d="M74.7762 46.847C70.4639 44.949 67.1002 42.102 64.6853 38.3059C62.2704 34.5098 61.0629 30.0235 61.0629 24.8471C61.0629 17.4275 63.3916 11.3882 68.049 6.72942C72.7063 2.24314 78.6573 0 85.9021 0C93.1469 0 99.1841 2.32941 104.014 6.98824C108.671 11.6471 111 17.6 111 24.8471C111 28.298 110.569 31.749 109.706 35.2C108.844 38.651 106.946 43.8274 104.014 50.7294L89.007 88H63.3916L74.7762 46.847ZM13.7133 46.847C9.40092 44.949 6.03729 42.102 3.62238 38.3059C1.20746 34.5098 -7.62939e-06 30.0235 -7.62939e-06 24.8471C-7.62939e-06 17.4275 2.32867 11.3882 6.98602 6.72942C11.6434 2.24314 17.5944 0 24.8392 0C32.0839 0 38.1212 2.32941 42.951 6.98824C47.6084 11.6471 49.9371 17.6 49.9371 24.8471C49.9371 28.298 49.5058 31.749 48.6434 35.2C47.7809 38.651 45.8834 43.8274 42.951 50.7294L27.9441 88H2.32867L13.7133 46.847Z" fill="#FFC144" fill-opacity="0.2"/>
</svg>
