<svg width="22" height="22" viewBox="0 0 22 22" fill="none" xmlns="http://www.w3.org/2000/svg">
<path d="M20.4133 0H1.58666C0.710316 0 0 0.710316 0 1.58666V20.4133C0 21.2897 0.710316 22 1.58666 22H20.4133C21.2897 22 22 21.2897 22 20.4133V1.58666C22 0.710316 21.2897 0 20.4133 0V0ZM16.5106 8.42011V9.90739C15.8093 9.90765 15.1278 9.77023 14.4852 9.49906C14.072 9.32461 13.687 9.09979 13.3348 8.82819L13.3454 13.4062C13.341 14.437 12.9332 15.4056 12.195 16.1351C11.5943 16.7289 10.8332 17.1066 10.0082 17.2288C9.81428 17.2575 9.61701 17.2722 9.4175 17.2722C8.53437 17.2722 7.69587 16.9861 7.01001 16.4583C6.88093 16.3589 6.75752 16.2512 6.63996 16.1351C5.84001 15.3445 5.42751 14.2728 5.49695 13.1456C5.54997 12.2874 5.89351 11.469 6.46624 10.8276C7.22399 9.9788 8.28407 9.50765 9.4175 9.50765C9.61701 9.50765 9.81428 9.5226 10.0082 9.55135V10.1013V11.631C9.82438 11.5704 9.62805 11.537 9.42365 11.537C8.3881 11.537 7.55034 12.3819 7.56581 13.4182C7.57561 14.0812 7.93783 14.6608 8.47202 14.9803C8.72304 15.1305 9.01188 15.2234 9.32009 15.2404C9.56158 15.2536 9.79344 15.22 10.0082 15.1491C10.748 14.9047 11.2817 14.2098 11.2817 13.3902L11.2842 10.3245V4.72777H13.3324C13.3344 4.93071 13.3549 5.12875 13.3932 5.32061C13.5478 6.09727 13.9856 6.7711 14.5949 7.23048C15.1262 7.63121 15.7877 7.86874 16.5048 7.86874C16.5052 7.86874 16.5111 7.86874 16.5107 7.86827V8.42011H16.5106Z" fill="black"/>
</svg>
